# xmcd
#
# Track frame offsets:
#	150
#	16238
#	27101
#	43316
#	58028
#	72002
#	85600
#	100743
#	112424
#	128133
#	143133
#	159401
#	175446
#	193244
#	208805
#
# Disc length: 2972 seconds
#
# Revision: 0
# Processed by: cddbd v1.4PL0 Copyright (c) Steve Scherf et al.
# Submitted via: EasyCDDAExtractor 5.0.5.1
#
DISCID=d60b9a0f
DTITLE=Gregg Nash - Songs That Comfort Me
DYEAR=1998
DGENRE=Gospel
TTITLE0=I Call It Home
TTITLE1=I Am With Thee
TTITLE2=He Changed My Bitter Tears
TTITLE3=Is Not This The Land Of Beulah?
TTITLE4=Trust In Me
TTITLE5=Then Came The Morning
TTITLE6=I Can Stand In His Presence
TTITLE7=Amazing Grace
TTITLE8=Sweet Beulah Land
TTITLE9=Be Still My Soul
TTITLE10=Streams In The Desert
TTITLE11=Someday
TTITLE12=Welcome To Heaven My child
TTITLE13=I'll See You Again
TTITLE14=I'm Going Home
EXTD=
EXTT0=
EXTT1=
EXTT2=
EXTT3=
EXTT4=
EXTT5=
EXTT6=
EXTT7=
EXTT8=
EXTT9=
EXTT10=
EXTT11=
EXTT12=
EXTT13=
EXTT14=
PLAYORDER=
